<?xml version="1.0" encoding="utf-8"?>
<!-- Generator: Adobe Illustrator 27.0.0, SVG Export Plug-In . SVG Version: 6.00 Build 0)  -->
<svg version="1.1" xmlns="http://www.w3.org/2000/svg" xmlns:xlink="http://www.w3.org/1999/xlink" x="0px" y="0px"
	 viewBox="0 0 2709.4655762 600" style="enable-background:new 0 0 2709.4655762 600;" xml:space="preserve">
<style type="text/css">
	.st0{fill:#FFFFFF;}
</style>
<g id="レイヤー_1">
</g>
<g id="logo">
	<g id="Logotype_x5F_WH">
		<g>
			<path class="st0" d="M2646.3076172,31.5789471c17.440918,0,31.5791016,14.1381512,31.5791016,31.5789471v467.5248413
				c0,20.8422852-16.8959961,37.7383423-37.7382812,37.7383423H69.3172607
				c-20.8422928,0-37.7383118-16.8960571-37.7383118-37.7383423V69.3172607
				c0-20.8422928,16.8960209-37.7383118,37.7383118-37.7383118h2181.0922852c1.7446289,0,3.4072266,0.7396908,4.5751953,2.0354061
				l84.782959,94.055954c12.3322754,12.3323441,32.3269043,12.3323441,44.6591797,0l84.782959-94.055954
				c1.1679688-1.2957153,2.8305664-2.0354061,4.5751953-2.0354061H2646.3076172 M2646.3076172,0h-185.3803711
				c-1.8859863,0-3.6833496,0.8008091-4.9443359,2.2030847l-82.5424805,91.7745743
				c-0.1169434,0.1300888-0.2380371,0.2587738-0.3637695,0.3804779c-6.1174316,5.9230576-15.8415527,5.9230652-21.9589844,0
				c-0.1257324-0.1217041-0.2468262-0.2503967-0.3637695-0.3804855l-82.3435059-91.5538788
				C2267.0229492,0.8810279,2265.0454102,0,2262.9707031,0H69.3172607C31.0343952,0,0,31.0343952,0,69.3172607v461.3654785
				C0,568.9655762,31.0343952,600,69.3172607,600h2570.8310547c38.2827148,0,69.3171387-31.0344238,69.3171387-69.3172607
				V63.1578941C2709.4655762,28.3325844,2681.1333008,0,2646.3076172,0L2646.3076172,0z"/>
		</g>
		<path class="st0" d="M297.5716248,240.0523376c4.9324646,0.8970337,7.6231689,3.1390076,7.6231689,8.9683228v35.4249268
			c0,4.9322815-2.6907043,7.1746521-7.6231689,7.1746521h-73.0916595c-41.2542267,0-47.5322418,13.9009705-47.5322418,70.4011536
			c0,56.0518799,6.2780151,70.4011841,47.5322418,70.4011841h73.0916595c4.9324646,0,7.6231689,2.2423401,7.6231689,6.7263184
			v35.8732605c0,5.3809814-2.6907043,7.6229553-7.6231689,8.519989c-24.214447,5.3809814-56.5003662,6.2776184-73.0916595,6.2776184
			c-95.512619,0-113.8977661-29.1094666-113.8977661-127.7983704c0-99.1711731,18.3851471-127.7983551,113.8977661-127.7983551
			C241.0712585,234.2230377,273.3571777,235.1196747,297.5716248,240.0523376z"/>
		<path class="st0" d="M394.8058472,178.032959c3.0759888,0,6.2704773,2.4220886,6.2704773,6.2704926v299.2458496
			c0,3.7074585-3.0898132,6.2704773-6.2866516,6.2704773h-53.3527222c-4.6363831,0-6.7261353-3.3304443-6.7261353-6.6546326
			v-298.40625c0-4.483963,3.1711426-6.7259369,6.2705078-6.7259369H394.8058472z"/>
		<path class="st0" d="M1690.8756104,358.8823853v13.901001c0,8.9682922-2.6903076,12.1072998-14.3492432,12.1072998h-140.8027344
			c0.8969727,40.3572388,11.6590576,47.5318909,50.6712646,47.5318909h79.8564453
			c3.1628418,0,6.2393799,2.4273071,6.2393799,6.2644958v37.521759c0,4.0014343-2.2276611,6.5479126-6.2780762,7.333313
			c-23.7658691,4.9326782-56.0518799,6.2776184-85.6470947,6.2776184c-90.5800781,0-112.5523682-25.5596008-112.5523682-127.7983704
			c0-102.6870728,21.97229-127.7983551,112.5523682-127.7983551
			C1668.9033203,234.2230377,1690.4273682,258.8859863,1690.8756104,358.8823853z M1535.2752686,341.3944702h88.786499
			c-0.4482422-39.4605713-10.7619629-49.774231-43.4962158-49.774231
			C1546.9343262,291.6202393,1535.7236328,301.9338989,1535.2752686,341.3944702z"/>
		<path class="st0" d="M1830.2713623,432.4225769h-19.7374268c-19.7307129,0-26.456665-3.5865784-26.456665-22.8685303V292.0094604
			h42.6364746c2.8978271,0,6.2399902-2.2420044,6.2399902-6.7259521v-44.7677765c0-2.7817383-2.0980225-6.291153-6.2399902-6.291153
			h-42.6364746l-0.0014648-49.9211273c0-3.0112-2.4642334-6.2704926-6.3013916-6.2704926h-53.793335
			c-3.5554199,0-6.2703857,2.9104614-6.2703857,6.2704926v247.6719513c0,56.4997864,34.9772949,57.8443604,73.5412598,57.8443604
			c9.8637695,0,22.4197998-0.895874,38.1152344-4.0352478c4.9326172-0.895874,7.1746826-3.1378479,7.1746826-8.5192261v-38.1152344
			C1836.5418701,435.082428,1833.8323975,432.4225769,1830.2713623,432.4225769z"/>
		<path class="st0" d="M2347.9958496,362.0213928c0,102.2387695-21.0754395,127.7983704-114.3459473,127.7983704
			c-92.8217773,0-114.3457031-25.5596008-114.3457031-127.7983704c0-102.6870728,21.5239258-127.7983551,114.3457031-127.7983551
			C2326.9204102,234.2230377,2347.9958496,259.3343201,2347.9958496,362.0213928z M2186.1179199,362.0213928
			c0,56.5001831,6.7263184,70.4011841,47.5319824,70.4011841c41.2546387,0,47.9804688-13.901001,47.9804688-70.4011841
			s-6.7258301-70.4011536-47.9804688-70.4011536C2192.8442383,291.6202393,2186.1179199,305.5212097,2186.1179199,362.0213928z"/>
		<path class="st0" d="M2025.6643066,237.4912872c-34.4239502-6.2475433-72.1112061-3.246048-95.515625,0v-53.1878357
			c0-4.1507416-3.479248-6.2704926-6.2539062-6.2704926h-53.8406982c-4.0356445,0-6.2705078,3.3755646-6.2705078,6.2704926
			v298.8372192c0,3.7672424,2.5255127,6.6791077,6.2705078,6.6791077h53.8406982
			c3.3560791,0,6.2539062-2.5281372,6.2539062-6.248291c0,0,0.0015869-115.2279968,0.0015869-121.7473145
			c0-47.8942261,1.3311768-70.4003906,47.5318604-70.4003906s48.2689209,22.5184937,47.9805908,70.4003906
			c-0.2929688,48.5526123,0.0015869,121.7473145,0.0015869,121.7473145c0,4.0224915,3.3305664,6.248291,6.2539062,6.248291
			h53.8405762c2.6777344,0,6.2705078-2.132782,6.2705078-6.248291c0,0,0-118.5153198,0-134.2098083
			C2092.0292969,277.3618164,2074.6691895,246.3851471,2025.6643066,237.4912872z"/>
		<path class="st0" d="M2592.1569824,175.7909698c4.8134766,0,6.7263184,3.5710449,6.7263184,6.2705078v281.076416
			c0,12.7784424-5.3996582,17.3684082-18.8759766,19.8286133c-19.439209,3.5488586-58.2514648,6.8532715-89.1923828,6.8532715
			c-96.3325195,0-116.1394043-26.4562378-116.1394043-127.3500366c0-99.5480957,19.9465332-128.2466888,109.1091309-128.2466888
			c31.1196289,0,32.1416016,0.896637,48.7331543,2.6902924v-54.5745697c0-4.7674408,3.755127-6.5477905,6.1970215-6.5477905
			H2592.1569824z M2492.1601562,292.068573c-45.2897949,0-51.1191406,12.1072998-51.1191406,69.9528198
			c0,52.9128723,3.5874023,70.4011841,48.4289551,70.4011841c10.7619629,0,29.5952148-0.896637,43.0478516-3.1390076V292.068573
			H2492.1601562z"/>
		<path class="st0" d="M641.0430298,311.3505249v145.946167c0,16.7441406-2.4041138,22.8150635-26.7528687,26.3316345
			c-28.0513306,4.0513306-59.8449097,6.1914368-84.9025879,6.1914368c-67.2625122,0-102.6870728-7.1746521-103.5840759-77.5758057
			c0.8970032-60.5362244,32.2859192-73.5401611,91.9255066-73.5401611h56.9484863v-16.1429749
			c0-21.5239563-13.4522705-30.9405823-42.1508789-30.9405823h-81.1633301c-1.9931641,0-6.277832-1.4212341-6.277832-6.7263184
			v-36.7698975c0-3.1807404,1.7936707-6.2780151,6.277832-7.1746521
			c27.3534546-5.3813782,53.3613586-6.7263336,81.1633301-6.7263336
			C621.3127441,234.2230377,641.0430298,262.9216309,641.0430298,311.3505249z M523.1096191,381.7516785
			c-23.3172607,0-31.388916,7.6229858-31.388916,26.9049377c0,21.5239563,9.8649292,27.3532715,38.1152344,27.3532715
			c8.9683228,0,31.8375854-0.896637,44.8415527-4.4839478v-49.7742615H523.1096191z"/>
		<path class="st0" d="M765.671814,288.480835h93.2772217c2.3504639,0,6.2705078-1.8167114,6.2705078-6.7259216v-36.5093079
			c0-2.116272-1.7107544-6.2557983-7.6233521-6.5386047c-15.3762207-1.6020813-36.2664795-3.1979828-61.1564941-3.9828339
			c-7.3226318-0.3392334-29.0979614-0.5011292-31.6652832-0.5011292c-56.9484863,0-95.5124512,13.451889-95.5124512,65.4677277
			v7.176178c0,30.4903564,8.9679565,53.8091125,47.0831909,67.2625427c0,0,63.4431763,22.7420959,65.4677124,23.5624084
			c9.9193115,4.9126282,13.4534302,10.3417969,13.4534302,17.2419739v4.4855042
			c0,11.2098999-8.9678955,16.1410522-26.456604,16.1410522l-93.2772217,0.0015259
			c-2.3953857,0-6.2705078,1.7932739-6.2705078,6.7259521v36.3219604c0,2.1934204,1.3635254,6.2399292,7.6233521,6.7259521
			c15.3762817,1.6020508,36.2664795,3.1995239,61.1549683,3.9828186c7.3242188,0.3392334,29.0994873,0.5011292,31.6668091,0.5011292
			c56.9484863,0,95.5124512-13.4518738,95.5124512-65.4692688v-7.1730957c0-30.4934387-8.9679565-53.8106384-47.0831909-67.2625427
			c0,0-63.4447021-22.7436218-65.4677124-23.5639343c-9.9193115-4.9126282-13.4534302-10.3417969-13.4534302-17.2419739v-4.4839783
			C739.21521,293.4150696,748.1831665,288.480835,765.671814,288.480835z"/>
		<path class="st0" d="M987.7404785,288.480835h93.2772217c2.3504639,0,6.2705078-1.8167114,6.2705078-6.7259216v-36.5093079
			c0-2.116272-1.7106934-6.2557983-7.6234131-6.5386047c-15.3762207-1.6020813-36.2663574-3.1979828-61.1564331-3.9828339
			c-7.3226318-0.3392334-29.0979614-0.5011292-31.6652832-0.5011292c-56.9484863,0-95.5124512,13.451889-95.5124512,65.4677277
			v7.176178c0,30.4903564,8.9679565,53.8091125,47.0831909,67.2625427c0,0,63.4431152,22.7420959,65.4677124,23.5624084
			c9.9193115,4.9126282,13.4534302,10.3417969,13.4534302,17.2419739v4.4855042
			c0,11.2098999-8.9678955,16.1410522-26.456604,16.1410522l-93.2772217,0.0015259
			c-2.3953857,0-6.2705078,1.7932739-6.2705078,6.7259521v36.3219604c0,2.1934204,1.3635254,6.2399292,7.6233521,6.7259521
			c15.3762817,1.6020508,36.2664795,3.1995239,61.1549072,3.9828186c7.3242188,0.3392334,29.0995483,0.5011292,31.6668701,0.5011292
			c56.9484863,0,95.5124512-13.4518738,95.5124512-65.4692688v-7.1730957c0-30.4934387-8.9678955-53.8106384-47.0831299-67.2625427
			c0,0-63.4447632-22.7436218-65.4677734-23.5639343c-9.9193115-4.9126282-13.4534302-10.3417969-13.4534302-17.2419739v-4.4839783
			C961.2838745,293.4150696,970.2518311,288.480835,987.7404785,288.480835z"/>
		<path class="st0" d="M1342.8516846,234.3577576c-30.9177246,0-52.2393799,4.5919037-64.9141846,11.3594818
			c-12.6762695-6.7675781-31.9309082-11.3594818-64.9157715-11.3594818c-80.2796631,0-98.092041,24.6602478-98.092041,107.385376
			v141.8061523c0,3.8121033,3.206543,6.2704773,6.2705078,6.2704773h53.7355957c3.0374756,0,6.2711182-2.458374,6.2711182-6.2704773
			V358.7615356c0-54.2840271,5.1516113-64.8046875,31.8148193-66.7506104
			c24.8638916,1.813324,31.0192871,11.098877,31.737793,56.3502197l0.0385742,135.1881409
			c0,2.4167786,2.0471191,6.2704773,6.2711182,6.2704773h53.7279053c3.15271,0,6.2781982-2.5513916,6.2781982-6.2704773
			l0.0401611-135.1773376c0.7185059-45.2605896,6.8724365-54.547699,31.7362061-56.3610229
			c26.663208,1.9459229,31.8148193,12.4665833,31.8148193,66.7506104v124.7877502
			c0,4.0679321,3.4924316,6.2704773,6.2711182,6.2704773h53.7429199c2.9433594,0,6.2631836-2.4118652,6.2631836-6.2704773
			V341.7431335C1440.9437256,259.0180054,1423.5616455,234.3577576,1342.8516846,234.3577576z"/>
	</g>
</g>
</svg>
